<?xml version="1.0" encoding="utf-8"?>
<!DOCTYPE svg PUBLIC "-//W3C//DTD SVG 1.1//EN" "http://www.w3.org/Graphics/SVG/1.1/DTD/svg11.dtd">
<svg version="1.1" xmlns="http://www.w3.org/2000/svg" xmlns:xlink="http://www.w3.org/1999/xlink" x="0px" y="0px" width="1024px" height="1024px" viewBox="0 0 1024 1024" enable-background="new 0 0 1024 1024" xml:space="preserve">
<metadata> Free Icon Download -- www.onlinewebfonts.com </metadata>

  <path style="fill:#E8E8E8" d="M575.824631 861.888855 114.995057 861.888855 114.995057 162.110121l460.829574 0 0 187.744965 51.203172 0L627.027803 189.419094c0-43.352367-35.159778-78.512145-78.528518-78.512145L142.320403 110.906949c-43.36874 0-78.528518 35.159778-78.528518 78.512145L63.791885 834.580906c0 43.352367 35.159778 78.512145 78.528518 78.512145l406.178883 0c43.369763 0 78.528518-35.159778 78.528518-78.512145L627.027803 674.14389l-51.203172 0L575.824631 861.888855z" />
<path style="fill:#E8E8E8" d="M755.036245 306.828131 718.835765 343.046007 862.187661 486.397902 507.553735 486.397902 507.553735 537.601074 862.187661 537.601074 718.835765 680.953993 755.036245 717.171869 960.208115 512Z" />


</svg>