<?xml version="1.0" ?><svg clip-rule="evenodd" fill-rule="evenodd" image-rendering="optimizeQuality" shape-rendering="geometricPrecision" text-rendering="geometricPrecision" viewBox="0 0 5000 5000" xmlns="http://www.w3.org/2000/svg"><defs><style type="text/css"><![CDATA[
    .fil0 {fill:#E8E8E8}
   ]]></style></defs><g id="Layer_x0020_1"><rect class="fil0" height="3100" width="250" x="200" y="1000"/><rect class="fil0" height="2500" width="250" x="650" y="1000"/><rect class="fil0" height="2500" width="550" x="1050" y="1000"/><rect class="fil0" height="2500" width="200" x="1950" y="1000"/><rect class="fil0" height="2500" width="400" x="2376" y="1000"/><rect class="fil0" height="2500" width="300" x="3693" y="1000"/><rect class="fil0" height="2500" width="200" x="2952" y="1000"/><rect class="fil0" height="2500" width="200" x="4150" y="1000"/><rect class="fil0" height="3100" width="300" x="4500" y="1000"/><rect class="fil0" height="200" width="200" x="650" y="3900"/><rect class="fil0" height="200" width="200" x="1050" y="3900"/><rect class="fil0" height="200" width="200" x="1450" y="3900"/><rect class="fil0" height="200" width="200" x="1850" y="3900"/><rect class="fil0" height="200" width="200" x="2250" y="3900"/><rect class="fil0" height="200" width="200" x="2650" y="3900"/><rect class="fil0" height="200" width="200" x="3050" y="3900"/><rect class="fil0" height="200" width="200" x="3450" y="3900"/><rect class="fil0" height="200" width="200" x="3850" y="3900"/></g></svg>