<?xml version="1.0" encoding="UTF-8" standalone="no"?>
<svg
   xmlns:sketch="http://www.bohemiancoding.com/sketch/ns"
   xmlns:dc="http://purl.org/dc/elements/1.1/"
   xmlns:cc="http://creativecommons.org/ns#"
   xmlns:rdf="http://www.w3.org/1999/02/22-rdf-syntax-ns#"
   xmlns:svg="http://www.w3.org/2000/svg"
   xmlns="http://www.w3.org/2000/svg"
   xmlns:sodipodi="http://sodipodi.sourceforge.net/DTD/sodipodi-0.dtd"
   xmlns:inkscape="http://www.inkscape.org/namespaces/inkscape"
   id="svg2"
   version="1.1"
   viewBox="0 0 26.132429 26.414339"
   height="26.414339"
   width="26.132429"
   inkscape:version="0.91 r13725"
   sodipodi:docname="keypadclose.svg">
  <sodipodi:namedview
     pagecolor="#ffffff"
     bordercolor="#666666"
     borderopacity="1"
     objecttolerance="10"
     gridtolerance="10"
     guidetolerance="10"
     inkscape:pageopacity="0"
     inkscape:pageshadow="2"
     inkscape:window-width="1285"
     inkscape:window-height="863"
     id="namedview12"
     showgrid="false"
     inkscape:zoom="9.8333333"
     inkscape:cx="11.515367"
     inkscape:cy="16.943205"
     inkscape:window-x="0"
     inkscape:window-y="0"
     inkscape:window-maximized="0"
     inkscape:current-layer="svg2"
     fit-margin-top="0"
     fit-margin-left="0"
     fit-margin-right="0"
     fit-margin-bottom="0" />
  <metadata
     id="metadata16">
    <rdf:RDF>
      <cc:Work
         rdf:about="">
        <dc:format>image/svg+xml</dc:format>
        <dc:type
           rdf:resource="http://purl.org/dc/dcmitype/StillImage" />
        <dc:title>editor-keypad-glyph</dc:title>
      </cc:Work>
    </rdf:RDF>
  </metadata>
  <!-- Generator: Sketch 3.3.3 (12072) - http://www.bohemiancoding.com/sketch -->
  <title
     id="title4">editor-keypad-glyph</title>
  <desc
     id="desc6">Created with Sketch.</desc>
  <defs
     id="defs8" />
  <g
     style="fill:#ffffff;fill-rule:evenodd;stroke:none;stroke-width:1"
     transform="matrix(0.75821994,0,0,0.75821994,4.8127267,2.445343)"
     sketch:type="MSPage"
     id="miu">
    <g
       transform="translate(-323,-479)"
       sketch:type="MSArtboardGroup"
       id="Artboard-1"
       style="fill:#ffffff">
      <g
         transform="translate(215,119)"
         sketch:type="MSLayerGroup"
         id="slice"
         style="fill:#ffffff" />
      <path
         style="fill:#ffffff"
         sketch:type="MSShapeGroup"
         id="editor-keypad-glyph"
         d="m 326.5,485 c 1.38071,0 2.5,-1.11929 2.5,-2.5 0,-1.38071 -1.11929,-2.5 -2.5,-2.5 -1.38071,0 -2.5,1.11929 -2.5,2.5 0,1.38071 1.11929,2.5 2.5,2.5 z m 8.5,0 c 1.38071,0 2.5,-1.11929 2.5,-2.5 0,-1.38071 -1.11929,-2.5 -2.5,-2.5 -1.38071,0 -2.5,1.11929 -2.5,2.5 0,1.38071 1.11929,2.5 2.5,2.5 z m 8.5,0 c 1.38071,0 2.5,-1.11929 2.5,-2.5 0,-1.38071 -1.11929,-2.5 -2.5,-2.5 -1.38071,0 -2.5,1.11929 -2.5,2.5 0,1.38071 1.11929,2.5 2.5,2.5 z m -17,8 c 1.38071,0 2.5,-1.11929 2.5,-2.5 0,-1.38071 -1.11929,-2.5 -2.5,-2.5 -1.38071,0 -2.5,1.11929 -2.5,2.5 0,1.38071 1.11929,2.5 2.5,2.5 z m 8.5,0 c 1.38071,0 2.5,-1.11929 2.5,-2.5 0,-1.38071 -1.11929,-2.5 -2.5,-2.5 -1.38071,0 -2.5,1.11929 -2.5,2.5 0,1.38071 1.11929,2.5 2.5,2.5 z m 8.5,0 c 1.38071,0 2.5,-1.11929 2.5,-2.5 0,-1.38071 -1.11929,-2.5 -2.5,-2.5 -1.38071,0 -2.5,1.11929 -2.5,2.5 0,1.38071 1.11929,2.5 2.5,2.5 z m -17,8 c 1.38071,0 2.5,-1.11929 2.5,-2.5 0,-1.38071 -1.11929,-2.5 -2.5,-2.5 -1.38071,0 -2.5,1.11929 -2.5,2.5 0,1.38071 1.11929,2.5 2.5,2.5 z m 8.5,0 c 1.38071,0 2.5,-1.11929 2.5,-2.5 0,-1.38071 -1.11929,-2.5 -2.5,-2.5 -1.38071,0 -2.5,1.32149 -2.5,2.5 0,1.17851 1.11929,2.5 2.5,2.5 z m 8.5,0 c 1.38071,0 2.5,-1.11929 2.5,-2.5 0,-1.38071 -1.11929,-2.5 -2.5,-2.5 -1.38071,0 -2.5,1.11929 -2.5,2.5 0,1.38071 1.11929,2.5 2.5,2.5 z"
         inkscape:connector-curvature="0" />
    </g>
  </g>
  <circle
     r="1.4285406"
     cy="23.402454"
     cx="13.920462"
     id="path3397"
     style="fill:#ffffff;fill-rule:evenodd;stroke:#ffffff;stroke-width:0.92939895px;stroke-linecap:butt;stroke-linejoin:miter;stroke-opacity:1" />
  <rect
     style="fill:#ffffff"
     id="rect3342"
     width="29.38983"
     height="2.4406779"
     x="-13.125955"
     y="16.417156"
     transform="matrix(0.73036497,-0.68305711,0.68305711,0.73036497,0,0)" />
</svg>
