<?xml version="1.0" encoding="UTF-8" standalone="no"?>
<svg
   xmlns:sketch="http://www.bohemiancoding.com/sketch/ns"
   xmlns:dc="http://purl.org/dc/elements/1.1/"
   xmlns:cc="http://creativecommons.org/ns#"
   xmlns:rdf="http://www.w3.org/1999/02/22-rdf-syntax-ns#"
   xmlns:svg="http://www.w3.org/2000/svg"
   xmlns="http://www.w3.org/2000/svg"
   xmlns:sodipodi="http://sodipodi.sourceforge.net/DTD/sodipodi-0.dtd"
   xmlns:inkscape="http://www.inkscape.org/namespaces/inkscape"
   width="26.132429"
   height="26.414339"
   viewBox="0 0 26.132429 26.414339"
   version="1.1"
   id="svg2"
   inkscape:version="0.91 r13725"
   sodipodi:docname="keypadbopen.svg">
  <sodipodi:namedview
     pagecolor="#ffffff"
     bordercolor="#666666"
     borderopacity="1"
     objecttolerance="10"
     gridtolerance="10"
     guidetolerance="10"
     inkscape:pageopacity="0"
     inkscape:pageshadow="2"
     inkscape:window-width="640"
     inkscape:window-height="480"
     id="namedview12"
     showgrid="false"
     inkscape:zoom="8.9345412"
     inkscape:cx="13.066215"
     inkscape:cy="13.20717"
     inkscape:window-x="0"
     inkscape:window-y="0"
     inkscape:window-maximized="0"
     inkscape:current-layer="svg2" />
  <metadata
     id="metadata16">
    <rdf:RDF>
      <cc:Work
         rdf:about="">
        <dc:format>image/svg+xml</dc:format>
        <dc:type
           rdf:resource="http://purl.org/dc/dcmitype/StillImage" />
        <dc:title>editor-keypad-glyph</dc:title>
      </cc:Work>
    </rdf:RDF>
  </metadata>
  <!-- Generator: Sketch 3.3.3 (12072) - http://www.bohemiancoding.com/sketch -->
  <title
     id="title4">editor-keypad-glyph</title>
  <desc
     id="desc6">Created with Sketch.</desc>
  <defs
     id="defs8" />
  <g
     id="miu"
     sketch:type="MSPage"
     transform="matrix(0.75821994,0,0,0.75821994,4.8127267,2.445343)"
     style="fill:#000000;fill-rule:evenodd;stroke:none;stroke-width:1">
    <g
       style="fill:#000000"
       id="Artboard-1"
       sketch:type="MSArtboardGroup"
       transform="translate(-323,-479)">
      <g
         style="fill:#000000"
         id="slice"
         sketch:type="MSLayerGroup"
         transform="translate(215,119)" />
      <path
         d="m 326.5,485 c 1.38071,0 2.5,-1.11929 2.5,-2.5 0,-1.38071 -1.11929,-2.5 -2.5,-2.5 -1.38071,0 -2.5,1.11929 -2.5,2.5 0,1.38071 1.11929,2.5 2.5,2.5 z m 8.5,0 c 1.38071,0 2.5,-1.11929 2.5,-2.5 0,-1.38071 -1.11929,-2.5 -2.5,-2.5 -1.38071,0 -2.5,1.11929 -2.5,2.5 0,1.38071 1.11929,2.5 2.5,2.5 z m 8.5,0 c 1.38071,0 2.5,-1.11929 2.5,-2.5 0,-1.38071 -1.11929,-2.5 -2.5,-2.5 -1.38071,0 -2.5,1.11929 -2.5,2.5 0,1.38071 1.11929,2.5 2.5,2.5 z m -17,8 c 1.38071,0 2.5,-1.11929 2.5,-2.5 0,-1.38071 -1.11929,-2.5 -2.5,-2.5 -1.38071,0 -2.5,1.11929 -2.5,2.5 0,1.38071 1.11929,2.5 2.5,2.5 z m 8.5,0 c 1.38071,0 2.5,-1.11929 2.5,-2.5 0,-1.38071 -1.11929,-2.5 -2.5,-2.5 -1.38071,0 -2.5,1.11929 -2.5,2.5 0,1.38071 1.11929,2.5 2.5,2.5 z m 8.5,0 c 1.38071,0 2.5,-1.11929 2.5,-2.5 0,-1.38071 -1.11929,-2.5 -2.5,-2.5 -1.38071,0 -2.5,1.11929 -2.5,2.5 0,1.38071 1.11929,2.5 2.5,2.5 z m -17,8 c 1.38071,0 2.5,-1.11929 2.5,-2.5 0,-1.38071 -1.11929,-2.5 -2.5,-2.5 -1.38071,0 -2.5,1.11929 -2.5,2.5 0,1.38071 1.11929,2.5 2.5,2.5 z m 8.5,0 c 1.38071,0 2.5,-1.11929 2.5,-2.5 0,-1.38071 -1.11929,-2.5 -2.5,-2.5 -1.38071,0 -2.5,1.32149 -2.5,2.5 0,1.17851 1.11929,2.5 2.5,2.5 z m 8.5,0 c 1.38071,0 2.5,-1.11929 2.5,-2.5 0,-1.38071 -1.11929,-2.5 -2.5,-2.5 -1.38071,0 -2.5,1.11929 -2.5,2.5 0,1.38071 1.11929,2.5 2.5,2.5 z"
         id="editor-keypad-glyph"
         sketch:type="MSShapeGroup"
         style="fill:#000000" />
    </g>
  </g>
  <circle
     style="fill:#000000;fill-rule:evenodd;stroke:#000000;stroke-width:0.92939895px;stroke-linecap:butt;stroke-linejoin:miter;stroke-opacity:1"
     id="path3397"
     cx="13.920462"
     cy="23.402454"
     r="1.4285406" />
</svg>
