<?xml version="1.0" encoding="UTF-8" standalone="no"?>
<svg width="24px" height="24px" viewBox="0 0 24 24" version="1.1" xmlns="http://www.w3.org/2000/svg" xmlns:xlink="http://www.w3.org/1999/xlink" xmlns:sketch="http://www.bohemiancoding.com/sketch/ns">
    <!-- Generator: Sketch 3.3.3 (12072) - http://www.bohemiancoding.com/sketch -->
    <title>common-search-lookup-outline-stroke</title>
    <desc>Created with Sketch.</desc>
    <defs></defs>
    <g id="miu" stroke="none" stroke-width="1" fill="none" fill-rule="evenodd" sketch:type="MSPage">
        <g id="Artboard-1" sketch:type="MSArtboardGroup" transform="translate(-504.000000, -407.000000)">
            <g id="slice" sketch:type="MSLayerGroup" transform="translate(215.000000, 119.000000)"></g>
            <path d="M518.355321,423.477719 C516.978868,424.437293 515.305148,425 513.5,425 C508.805579,425 505,421.194421 505,416.5 C505,411.805579 508.805579,408 513.5,408 C518.194421,408 522,411.805579 522,416.5 C522,418.667567 521.188662,420.645635 519.85311,422.147082 L526.197023,428.490994 C526.25233,428.546301 526.257003,428.642045 526.200832,428.698217 L524.990032,429.909017 C524.935379,429.96367 524.841084,429.963482 524.782809,429.905207 L518.355321,423.477719 L518.355321,423.477719 Z M513.5,424 C517.642136,424 521,420.642136 521,416.5 C521,412.357864 517.642136,409 513.5,409 C509.357864,409 506,412.357864 506,416.5 C506,420.642136 509.357864,424 513.5,424 L513.5,424 Z" id="common-search-lookup-outline-stroke" fill="#FFFFFF" sketch:type="MSShapeGroup"></path>
        </g>
    </g>
</svg>