<?xml version="1.0" encoding="UTF-8" standalone="no"?>
<svg width="24px" height="24px" viewBox="0 0 24 24" version="1.1" xmlns="http://www.w3.org/2000/svg" xmlns:xlink="http://www.w3.org/1999/xlink" xmlns:sketch="http://www.bohemiancoding.com/sketch/ns">
    <!-- Generator: Sketch 3.3.3 (12072) - http://www.bohemiancoding.com/sketch -->
    <title>device-volume-loudspeaker-speaker-mute-outline-stroke</title>
    <desc>Created with Sketch.</desc>
    <defs></defs>
    <g id="miu" stroke="none" stroke-width="1" fill="none" fill-rule="evenodd" sketch:type="MSPage">
        <g id="Artboard-1" sketch:type="MSArtboardGroup" transform="translate(-719.000000, -551.000000)">
            <g id="slice" sketch:type="MSLayerGroup" transform="translate(215.000000, 119.000000)"></g>
            <path d="M731,563.979053 L731,571 L723.125,566.2 L721.041667,566.2 C720,566.2 720,565.133333 720,565.133333 L720,560.866667 C720,560.866667 720,559.8 721.041667,559.8 L723.125,559.8 L723.850243,559.357947 L724.718825,559.919338 L723.121836,560.802124 L721,560.802124 L721,565.116821 L723.121836,565.116821 L730,569 L730,563.332722 L731,563.979053 L731,563.979053 Z M731,560.406982 L731,555 L726.694578,557.624257 L727.697754,558.27264 L730,557 L730,559.760652 L731,560.406982 L731,560.406982 Z M740.407665,566.487443 C740.791323,565.396835 741,564.223791 741,563.002007 C741,559.942759 739.691674,557.189086 737.604021,555.269989 L736.838796,555.925896 C738.779165,557.665257 740,560.191061 740,563.002007 C740,564.022717 739.839026,565.005829 739.541079,565.927342 L740.407665,566.487443 L740.407665,566.487443 Z M739.00889,569.155443 C738.545107,569.79564 738.010844,570.381441 737.417486,570.90146 L736.615994,570.271717 C737.196789,569.782589 737.718144,569.225133 738.167671,568.611738 L739.00889,569.155443 L739.00889,569.155443 Z M737.885657,564.857393 C737.96084,564.416836 738,563.963995 738,563.502007 C738,561.043605 736.891101,558.844199 735.146204,557.37669 L734.375249,558.037508 C735.975416,559.320368 737,561.291536 737,563.502007 C737,563.757715 736.986289,564.010221 736.959562,564.258829 L737.885657,564.857393 L737.885657,564.857393 Z M736.795819,567.725067 C736.420874,568.327158 735.968142,568.875786 735.451677,569.356896 L734.654446,568.730501 C735.159078,568.280953 735.598204,567.759446 735.955718,567.182085 L736.795819,567.725067 L736.795819,567.725067 Z M734.972509,562.974536 C734.815643,561.478385 733.998963,560.178682 732.818718,559.371677 L732.818718,559.371677 L732.0252,560.051836 C732.842774,560.532777 733.474341,561.296026 733.785928,562.207613 L734.972509,562.974536 L734.972509,562.974536 Z M734.275335,566.096002 C733.953336,566.625575 733.535714,567.090587 733.04644,567.467067 L732.228376,566.824303 C732.71821,566.495105 733.131248,566.060443 733.434962,565.552843 L734.275335,566.096002 L734.275335,566.096002 Z M721.961914,556.801514 L741.514404,569.675781 L742.060341,568.837955 L722.507851,555.963687 L721.961914,556.801514 Z" id="device-volume-loudspeaker-speaker-mute-outline-stroke" fill="#FFFFFF" sketch:type="MSShapeGroup"></path>
        </g>
    </g>
</svg>