<?xml version="1.0" encoding="UTF-8" standalone="no"?>
<!-- Created with Inkscape (http://www.inkscape.org/) -->
<svg id="svg2" xmlns:rdf="http://www.w3.org/1999/02/22-rdf-syntax-ns#" xmlns="http://www.w3.org/2000/svg" height="100mm" viewBox="0 0 354.33071 354.33071" width="100mm" version="1.1" xmlns:cc="http://creativecommons.org/ns#" xmlns:dc="http://purl.org/dc/elements/1.1/">
 <metadata id="metadata7">
  <rdf:RDF>
   <cc:Work rdf:about="">
    <dc:format>image/svg+xml</dc:format>
    <dc:type rdf:resource="http://purl.org/dc/dcmitype/StillImage"/>
    <dc:title/>
   </cc:Work>
  </rdf:RDF>
 </metadata>
 <g id="layer1" transform="translate(0 -698.03)" fill="#fff">
  <path id="path4" d="m339 702.3c-72.19 68.92-141.28 142.79-212.3 213.58-39.247 41.22-81.788 80.33-119.16 122.72 3.3786 15.42 19.176-3.1845 23.144-8.8497 14.353-10.618 27.442-42.41 43.455-18.435 67.866 54.678 175.44 42.818 230.75-25.013 56.57-63.473 54.317-168.97-4.1852-230.54 13.397-16.836 34.704-29.475 44.608-48.214-0.28895-3.078-3.257-5.6374-6.3142-5.2749zm-40.999 68.174c9.3447 11.459 16.734 24.357 23.901 37.28h-72.978c15.278-11.399 31.54-39.091 46.233-40.924l2.3177 2.9695 0.52684 0.67504zm-53.299 59.563c3.9209 32.471 3.385 65.425-1.203 97.797h-112.35c37.29-37.837 74.58-75.674 111.87-113.51l1.6843 15.714zm18.709-10.542c20.157 2.6938 48.193-5.2456 63.764 3.6388 10.986 33.849 10.251 71.035-1.0371 104.7h-71.148c5.1685-35.562 5.1723-72.782 0-108.34h8.4214zm-140.37 119.71h118.61c-9.1113 35.271-20.577 80.065-57.696 94.475-33.001 5.7185-51.976-31.344-61.859-57.536-2.101-11.696-17.223-33.522 0.94057-36.939zm135.52 0c18.374 2.3287 52.218-4.5715 61.283 3.3098-20.475 44.218-61.391 75.156-106.75 89.404 19.468-27.693 33.412-59.203 39.519-92.714h5.9496zm-151.21 28.276c6.6807 23.583 19.292 44.65 32.978 64.638-26-9.4237-51.401-21.542-72.184-40.35 10.767-4.636 37.528-53.242 39.205-24.288z"/>
  <path id="path6" d="m171.95 701.38c-87.495 0.21-165.12 78.97-165.33 167.75-0.88266 33.175 7.8398 65.702 24.754 94.039 16.119-13.121-10.444-30.866 23.237-23.585 31.064-25.292-31.276 2.527-30.129-20.477-9.4974-32.324-7.9766-67.366 2.5972-99.218h71.17c-3.6389 26.19-4.9727 52.894-3.1644 79.005 19.093-11.403 6.7098-35.648 11.503-53.715 1.8202-12.351-1.7453-31.983 16.824-25.675 20.181-3.6472 47.231 9.5306 60.372-11.364h-72.184c8.8643-35.173 20.293-79.795 57.287-94.098 29.818-5.8625 48.976 26.096 58.892 49.834 18.542-10.911-6.5014-28.473-10.395-41.39-10.372-14.202 18.952 3.8549 27.522 6.2628 4.8581 8.8271 24.72 3.0613 16.748-4.032-27.24-15.992-58.147-24.199-89.712-23.334zm-44.448 33.891c-13.99 22.036-21.974 47.374-27.255 72.865h-69.048c20.492-45.602 61.831-78.255 108.57-92.714-4.088 6.6165-8.1759 13.233-12.264 19.849z"/>
 </g>
</svg>
