<?xml version="1.0" encoding="UTF-8" standalone="no"?>
<svg
   xmlns:dc="http://purl.org/dc/elements/1.1/"
   xmlns:cc="http://creativecommons.org/ns#"
   xmlns:rdf="http://www.w3.org/1999/02/22-rdf-syntax-ns#"
   xmlns:svg="http://www.w3.org/2000/svg"
   xmlns="http://www.w3.org/2000/svg"
   xmlns:sodipodi="http://sodipodi.sourceforge.net/DTD/sodipodi-0.dtd"
   xmlns:inkscape="http://www.inkscape.org/namespaces/inkscape"
   version="1.1"
   x="0px"
   y="0px"
   viewBox="0 0 100 100"
   enable-background="new 0 0 100 100"
   xml:space="preserve"
   id="svg2"
   inkscape:version="0.91 r13725"
   sodipodi:docname="offline.svg"><metadata
     id="metadata12"><rdf:RDF><cc:Work
         rdf:about=""><dc:format>image/svg+xml</dc:format><dc:type
           rdf:resource="http://purl.org/dc/dcmitype/StillImage" /></cc:Work></rdf:RDF></metadata><defs
     id="defs10" /><sodipodi:namedview
     pagecolor="#ffffff"
     bordercolor="#666666"
     borderopacity="1"
     objecttolerance="10"
     gridtolerance="10"
     guidetolerance="10"
     inkscape:pageopacity="0"
     inkscape:pageshadow="2"
     inkscape:window-width="1920"
     inkscape:window-height="1017"
     id="namedview8"
     showgrid="false"
     inkscape:zoom="6.675088"
     inkscape:cx="34.091643"
     inkscape:cy="49.548168"
     inkscape:window-x="-8"
     inkscape:window-y="-8"
     inkscape:window-maximized="1"
     inkscape:current-layer="svg2" /><path
     style="fill:#ffffff"
     d="M 93.548828,4.7597656 C 74.211969,22.953172 55.704698,42.456355 36.681533,61.144639 26.167479,72.025551 14.771919,82.349933 4.7597656,93.548828 c 0.9050435,4.070759 5.1366599,-0.840697 6.1995964,-2.336315 3.844854,-2.803009 7.350809,-11.196277 11.640247,-4.86681 18.179331,14.434877 46.99415,11.304074 61.8125,-6.603515 C 99.565749,62.985413 98.962041,35.13521 83.291016,18.880859 86.879729,14.436105 92.58729,11.099475 95.240234,6.1523438 95.162833,5.3397439 94.367795,4.6640704 93.548828,4.7597656 Z M 82.566406,22.757812 c 2.503165,3.025216 4.482555,6.430288 6.402344,9.841797 -6.516276,0 -13.032552,0 -19.548828,0 4.092432,-3.009412 8.448641,-10.320127 12.384509,-10.803951 l 0.620838,0.783939 0.141137,0.178215 z m -14.277344,15.72461 c 1.050288,8.572444 0.906746,17.272234 -0.322265,25.818359 -10.031901,0 -20.063802,0 -30.095703,0 9.988932,-9.988932 19.977864,-19.977864 29.966797,-29.966797 0.15039,1.382813 0.300781,2.765625 0.451171,4.148438 z m 5.011719,-2.783203 c 5.399603,0.711161 12.909581,-1.384824 17.080541,0.960637 2.942898,8.936183 2.745948,18.753258 -0.277806,27.640925 -6.352865,0 -12.70573,0 -19.058594,0 1.384488,-9.388265 1.385503,-19.214305 0,-28.601562 0.751953,0 1.503906,0 2.255859,0 z M 35.699219,67.300781 c 10.591146,0 21.182291,0 31.773437,0 -2.440668,9.311454 -5.511923,21.137036 -15.455078,24.941407 -8.840036,1.509661 -13.92297,-8.274893 -16.570312,-15.189454 -0.562787,-3.087659 -4.613675,-8.84975 0.251953,-9.751953 z m 36.300781,0 C 76.921756,67.91556 85.987709,66.0939 88.416067,68.174586 82.93142,79.848071 71.971204,88.015801 59.820312,91.777344 65.035166,84.466259 68.77052,76.14766 70.40625,67.300781 l 1,0 0.59375,0 z m -40.503906,7.464844 c 1.789579,6.226032 5.167903,11.787466 8.833984,17.064453 C 33.365405,89.342232 26.561192,86.142944 20.994141,81.177734 23.878188,79.953818 31.04678,67.121728 31.496094,74.765625 Z"
     id="path4"
     inkscape:connector-curvature="0" /><path
     style="fill:#ffffff"
     d="M 48.800781,4.515625 C 25.364411,4.5701409 4.5704319,25.364723 4.515625,48.800781 c -0.2364391,8.758189 2.1000659,17.345266 6.630859,24.826172 4.3178,-3.463855 -2.7975479,-8.14875 6.22461,-6.226562 8.321054,-6.677192 -8.3778497,0.667133 -8.0707177,-5.405967 -2.5440849,-8.533471 -2.136717,-17.784701 0.6957175,-26.193643 6.3548172,0 12.7096352,0 19.0644532,0 -0.974772,6.914152 -1.332034,13.964091 -0.847656,20.857422 5.114604,-3.010264 1.797359,-9.410992 3.081285,-14.180745 0.487576,-3.260612 -0.467521,-8.443393 4.506605,-6.778239 5.406013,-0.962852 12.65187,2.516075 16.171875,-3 -6.445312,0 -12.890625,0 -19.335937,0 2.374502,-9.285762 5.435934,-21.065906 15.345703,-24.8417971 7.987285,-1.5476993 13.119289,6.8892091 15.77539,13.1562501 4.966825,-2.880583 -1.741532,-7.516812 -2.784505,-10.926817 -2.778471,-3.7492607 5.076659,1.017699 7.372396,1.653379 1.301348,2.330345 6.621838,0.808174 4.486328,-1.064453 C 65.535295,6.4537984 57.25596,4.2873029 48.800781,4.515625 Z m -11.90625,8.947266 c -3.747451,5.817383 -5.886259,12.506756 -7.300781,19.236328 -6.165365,0 -12.330729,0 -18.496094,0 C 16.586905,20.6603 27.660384,12.039844 40.179688,8.2226562 39.084635,9.969401 37.989583,11.716146 36.894531,13.462891 Z"
     id="path6"
     inkscape:connector-curvature="0" /></svg>