<?xml version="1.0" encoding="UTF-8" standalone="no"?>
<svg
   xmlns:dc="http://purl.org/dc/elements/1.1/"
   xmlns:cc="http://creativecommons.org/ns#"
   xmlns:rdf="http://www.w3.org/1999/02/22-rdf-syntax-ns#"
   xmlns:svg="http://www.w3.org/2000/svg"
   xmlns="http://www.w3.org/2000/svg"
   id="svg2"
   xml:space="preserve"
   enable-background="new 0 0 100 100"
   viewBox="0 0 100 100"
   y="0px"
   x="0px"
   version="1.1"><metadata
     id="metadata20"><rdf:RDF><cc:Work
         rdf:about=""><dc:format>image/svg+xml</dc:format><dc:type
           rdf:resource="http://purl.org/dc/dcmitype/StillImage" /><dc:title></dc:title></cc:Work></rdf:RDF></metadata><defs
     id="defs18" /><g
     style="fill:#ffffff"
     id="g4"><path
       style="fill:#ffffff"
       id="path6"
       d="M84.021,18.602L70.699,5.652C70.233,5.279,69.581,5,68.929,5H17.784c-1.397,0-2.422,1.025-2.422,2.329   v83.733c0,0.373,0.093,0.745,0.279,1.025c0.373,0.745,1.118,1.211,1.956,1.304l5.623-6.033l8.071,7.233   c0.466,0.373,1.211,0.373,1.584,0l7.546-7.233l8.85,7.326c0.466,0.373,1.118,0.373,1.584,0l8.478-7.326l8.012,7.326   c0.466,0.466,1.211,0.373,1.677,0l7.732-7.326l5.776,5.94c0.838-0.093,1.584-0.652,1.863-1.397   c0.093-0.279,0.186-0.652,0.186-0.932V20.278C84.766,19.626,84.486,19.067,84.021,18.602z M82.251,89.538l-4.658-5.072   c-0.466-0.373-1.211-0.373-1.584,0.093l-7.546,7.36H68.09l-7.732-7.173c-0.466-0.373-1.118-0.373-1.584,0l-8.198,7.173h-0.559   l-8.571-7.453c-0.466-0.373-1.211-0.373-1.584,0.093l-7.36,7.453h-0.466l-8.198-7.267c-0.466-0.373-1.118-0.373-1.584,0   l-4.192,4.852V7.329h48.443v12.949c0,1.304,1.118,2.329,2.422,2.329h13.042c0.093,0,0.186,0,0.279,0V89.538z"
       fill="#000000" /><path
       style="fill:#ffffff"
       id="path8"
       d="M62.247,34.459H37.753c-0.778,0-1.408,0.631-1.408,1.409c0,0.778,0.631,1.409,1.408,1.409h24.493   c0.778,0,1.409-0.631,1.409-1.409C63.655,35.09,63.024,34.459,62.247,34.459z"
       fill="#000000" /><path
       style="fill:#ffffff"
       id="path10"
       d="M62.247,45.153H37.753c-0.778,0-1.408,0.631-1.408,1.409c0,0.778,0.631,1.408,1.408,1.408h24.493   c0.778,0,1.409-0.63,1.409-1.408C63.655,45.784,63.024,45.153,62.247,45.153z"
       fill="#000000" /><path
       style="fill:#ffffff"
       id="path12"
       d="M62.247,55.847H37.753c-0.778,0-1.408,0.631-1.408,1.409s0.631,1.409,1.408,1.409h24.493   c0.778,0,1.409-0.631,1.409-1.409S63.024,55.847,62.247,55.847z"
       fill="#000000" /><path
       style="fill:#ffffff"
       id="path14"
       d="M62.247,66.542H49.334c-0.778,0-1.409,0.631-1.409,1.408c0,0.778,0.631,1.409,1.409,1.409h12.912   c0.778,0,1.409-0.631,1.409-1.409C63.655,67.172,63.024,66.542,62.247,66.542z"
       fill="#000000" /></g></svg>