<?xml version="1.0" encoding="UTF-8" standalone="no"?>
<!-- Created with Inkscape (http://www.inkscape.org/) -->
<svg id="svg2" xmlns:rdf="http://www.w3.org/1999/02/22-rdf-syntax-ns#" xmlns="http://www.w3.org/2000/svg" height="500" width="500" version="1.1" xmlns:cc="http://creativecommons.org/ns#" xmlns:dc="http://purl.org/dc/elements/1.1/" viewBox="0 0 500.00001 500.00001">
 <metadata id="metadata7">
  <rdf:RDF>
   <cc:Work rdf:about="">
    <dc:format>image/svg+xml</dc:format>
    <dc:type rdf:resource="http://purl.org/dc/dcmitype/StillImage"/>
    <dc:title/>
   </cc:Work>
  </rdf:RDF>
 </metadata>
 <g id="layer1" transform="translate(0 -552.36)">
  <g id="g4" fill="#fff" transform="matrix(5.3677 0 0 5.3677 -14.239 536.24)">
   <path id="path6" d="m84.021 18.602-13.322-12.95c-0.466-0.373-1.118-0.652-1.77-0.652h-51.145c-1.397 0-2.422 1.025-2.422 2.329v83.733c0 0.373 0.093 0.745 0.279 1.025 0.373 0.745 1.118 1.211 1.956 1.304l5.623-6.033 8.071 7.233c0.466 0.373 1.211 0.373 1.584 0l7.546-7.233 8.85 7.326c0.466 0.373 1.118 0.373 1.584 0l8.478-7.326 8.012 7.326c0.466 0.466 1.211 0.373 1.677 0l7.732-7.326 5.776 5.94c0.838-0.093 1.584-0.652 1.863-1.397 0.093-0.279 0.186-0.652 0.186-0.932v-70.691c0.187-0.652-0.093-1.211-0.558-1.676zm-1.77 70.936-4.658-5.072c-0.466-0.373-1.211-0.373-1.584 0.093l-7.546 7.36h-0.373l-7.732-7.173c-0.466-0.373-1.118-0.373-1.584 0l-8.198 7.173h-0.559l-8.571-7.453c-0.466-0.373-1.211-0.373-1.584 0.093l-7.36 7.453h-0.466l-8.198-7.267c-0.466-0.373-1.118-0.373-1.584 0l-4.192 4.852v-82.268h48.443v12.949c0 1.304 1.118 2.329 2.422 2.329h13.042 0.279v66.931z"/>
   <path id="path8" d="m62.247 34.459h-24.494c-0.778 0-1.408 0.631-1.408 1.409s0.631 1.409 1.408 1.409h24.493c0.778 0 1.409-0.631 1.409-1.409s-0.631-1.409-1.408-1.409z"/>
   <path id="path10" d="m62.247 45.153h-24.494c-0.778 0-1.408 0.631-1.408 1.409s0.631 1.408 1.408 1.408h24.493c0.778 0 1.409-0.63 1.409-1.408s-0.631-1.409-1.408-1.409z"/>
   <path id="path12" d="m62.247 55.847h-24.494c-0.778 0-1.408 0.631-1.408 1.409s0.631 1.409 1.408 1.409h24.493c0.778 0 1.409-0.631 1.409-1.409s-0.631-1.409-1.408-1.409z"/>
   <path id="path14" d="m62.247 66.542h-12.913c-0.778 0-1.409 0.631-1.409 1.408 0 0.778 0.631 1.409 1.409 1.409h12.912c0.778 0 1.409-0.631 1.409-1.409s-0.631-1.408-1.408-1.408z"/>
  </g>
 </g>
</svg>
