<?xml version="1.0" encoding="UTF-8" standalone="no"?>
<svg
   xmlns:dc="http://purl.org/dc/elements/1.1/"
   xmlns:cc="http://creativecommons.org/ns#"
   xmlns:rdf="http://www.w3.org/1999/02/22-rdf-syntax-ns#"
   xmlns:svg="http://www.w3.org/2000/svg"
   xmlns="http://www.w3.org/2000/svg"
   xmlns:sodipodi="http://sodipodi.sourceforge.net/DTD/sodipodi-0.dtd"
   xmlns:inkscape="http://www.inkscape.org/namespaces/inkscape"
   version="1.0"
   width="512.000000pt"
   height="512.000000pt"
   viewBox="0 0 512.000000 512.000000"
   preserveAspectRatio="xMidYMid meet"
   id="svg2"
   inkscape:version="0.91 r13725"
   sodipodi:docname="stock.svg">
  <defs
     id="defs20" />
  <sodipodi:namedview
     pagecolor="#ffffff"
     bordercolor="#666666"
     borderopacity="1"
     objecttolerance="10"
     gridtolerance="10"
     guidetolerance="10"
     inkscape:pageopacity="0"
     inkscape:pageshadow="2"
     inkscape:window-width="1920"
     inkscape:window-height="1017"
     id="namedview18"
     showgrid="false"
     inkscape:zoom="1.0429825"
     inkscape:cx="471.36038"
     inkscape:cy="186.37479"
     inkscape:window-x="-8"
     inkscape:window-y="-8"
     inkscape:window-maximized="1"
     inkscape:current-layer="svg2" />
  <metadata
     id="metadata4">
Created by potrace 1.13, written by Peter Selinger 2001-2015
<rdf:RDF>
  <cc:Work
     rdf:about="">
    <dc:format>image/svg+xml</dc:format>
    <dc:type
       rdf:resource="http://purl.org/dc/dcmitype/StillImage" />
  </cc:Work>
</rdf:RDF>
</metadata>
  <g
     transform="translate(0.000000,512.000000) scale(0.100000,-0.100000)"
     fill="#000000"
     stroke="none"
     id="g6"
     style="fill:#ffffff;fill-opacity:1">
    <path
       d="M2180 4740 c-168 -75 -663 -298 -1100 -495 -437 -196 -801 -362 -807 -367 -10 -8 -13 -86 -13 -328 0 -294 1 -318 18 -333 15 -14 40 -17 125 -17 l107 0 0 -1387 c0 -764 4 -1393 8 -1399 22 -34 28 -34 2047 -34 l1996 0 24 25 25 24 0 1386 0 1385 108 0 c93 0 111 3 125 18 15 16 17 55 17 335 l0 317 -22 14 c-28 17 -2334 996 -2345 995 -4 0 -145 -63 -313 -139z m1238 -526 c499 -212 966 -411 1037 -441 72 -30 136 -60 143 -66 9 -7 12 -42 10 -131 l-3 -121 -127 -3 -128 -3 0 -1404 0 -1405 -130 0 -130 0 0 1025 0 1025 -1535 0 -1535 0 0 -1025 0 -1025 -125 0 -125 0 0 1405 0 1405 -130 0 -131 0 3 131 3 132 985 443 c542 244 991 444 998 444 8 0 422 -174 920 -386z m-1368 -2354 l0 -190 -385 0 -385 0 0 190 0 190 385 0 385 0 0 -190z m-2 -512 l-3 -193 -382 -3 -383 -2 0 195 0 195 385 0 385 0 -2 -192z m892 -3 l0 -195 -380 0 -380 0 0 195 0 195 380 0 380 0 0 -195z m-890 -515 l0 -190 -385 0 -385 0 0 190 0 190 385 0 385 0 0 -190z m890 0 l0 -190 -380 0 -380 0 0 190 0 190 380 0 380 0 0 -190z m900 0 l0 -190 -385 0 -385 0 0 190 0 190 385 0 385 0 0 -190z"
       id="path8"
       style="fill:#ffffff;fill-opacity:1" />
    <path
       d="M1020 3135 l0 -195 320 0 320 0 0 195 0 195 -320 0 -320 0 0 -195z"
       id="path10"
       style="fill:#ffffff;fill-opacity:1" />
    <path
       d="M1790 3135 l0 -195 320 0 320 0 0 195 0 195 -320 0 -320 0 0 -195z"
       id="path12"
       style="fill:#ffffff;fill-opacity:1" />
    <path
       d="M2560 3135 l0 -195 320 0 320 0 0 195 0 195 -320 0 -320 0 0 -195z"
       id="path14"
       style="fill:#ffffff;fill-opacity:1" />
    <path
       d="M3457 3323 c-4 -3 -7 -91 -7 -195 l0 -188 320 0 320 0 0 195 0 195 -313 0 c-173 0 -317 -3 -320 -7z"
       id="path16"
       style="fill:#ffffff;fill-opacity:1" />
  </g>
</svg>
