<?xml version="1.0" encoding="UTF-8" standalone="no"?>
<svg width="24px" height="24px" viewBox="0 0 24 24" version="1.1" xmlns="http://www.w3.org/2000/svg" xmlns:xlink="http://www.w3.org/1999/xlink" xmlns:sketch="http://www.bohemiancoding.com/sketch/ns">
    <!-- Generator: Sketch 3.3.3 (12072) - http://www.bohemiancoding.com/sketch -->
    <title>device-volume-loudspeaker-speaker-up-outline-stroke</title>
    <desc>Created with Sketch.</desc>
    <defs></defs>
    <g id="miu" stroke="none" stroke-width="1" fill="none" fill-rule="evenodd" sketch:type="MSPage">
        <g id="Artboard-1" sketch:type="MSArtboardGroup" transform="translate(-647.000000, -551.000000)">
            <g id="slice" sketch:type="MSLayerGroup" transform="translate(215.000000, 119.000000)"></g>
            <path d="M651.125,559.8 L649.041667,559.8 C648,559.8 648,560.866667 648,560.866667 L648,565.133333 C648,565.133333 648,566.2 649.041667,566.2 L651.125,566.2 L659,571 L659,555 L651.125,559.8 L651.125,559.8 Z M649,560.802124 L649,565.116821 L651.121836,565.116821 L658,569 L658,557 L651.121836,560.802124 L649,560.802124 Z M665.604021,555.269989 C667.691674,557.189086 669,559.942759 669,563.002007 C669,566.151387 667.613446,568.976921 665.417486,570.90146 L664.615994,570.271717 C666.685249,568.529054 668,565.919069 668,563.002007 C668,560.191061 666.779165,557.665257 664.838796,555.925896 L665.604021,555.269989 Z M663.146204,557.37669 C664.891101,558.844199 666,561.043605 666,563.502007 C666,565.813711 665.019495,567.896405 663.451677,569.356896 L662.654446,568.730501 C664.09362,567.448425 665,565.581064 665,563.502007 C665,561.291536 663.975416,559.320368 662.375249,558.037508 L663.146204,557.37669 Z M660.818718,559.371677 C662.135703,560.27218 663,561.78616 663,563.502007 C663,565.116879 662.234435,566.552944 661.04644,567.467067 L660.228376,566.824303 C661.29691,566.106184 662,564.886203 662,563.502007 C662,562.031868 661.206892,560.74697 660.0252,560.051836 L660.818718,559.371677 L660.818718,559.371677 Z" id="device-volume-loudspeaker-speaker-up-outline-stroke" fill="#FFFFFF" sketch:type="MSShapeGroup"></path>
        </g>
    </g>
</svg>