<?xml version="1.0" encoding="UTF-8" standalone="no"?>
<svg
   xmlns:dc="http://purl.org/dc/elements/1.1/"
   xmlns:cc="http://creativecommons.org/ns#"
   xmlns:rdf="http://www.w3.org/1999/02/22-rdf-syntax-ns#"
   xmlns:svg="http://www.w3.org/2000/svg"
   xmlns="http://www.w3.org/2000/svg"
   id="svg2"
   preserveAspectRatio="xMidYMid meet"
   viewBox="0 0 512.000000 512.000000"
   height="512.000000pt"
   width="512.000000pt"
   version="1.0">
  <defs
     id="defs16" />
  <metadata
     id="metadata4">
Created by potrace 1.13, written by Peter Selinger 2001-2015
<rdf:RDF>
  <cc:Work
     rdf:about="">
    <dc:format>image/svg+xml</dc:format>
    <dc:type
       rdf:resource="http://purl.org/dc/dcmitype/StillImage" />
    <dc:title></dc:title>
  </cc:Work>
</rdf:RDF>
</metadata>
  <g
     style="fill:#000000;fill-opacity:1"
     id="g6"
     stroke="none"
     fill="none"
     transform="translate(0.000000,512.000000) scale(0.100000,-0.100000)">
    <path
       style="fill:#489143;fill-opacity:1"
       id="path8"
       d="M2807 4329 l-207 -121 2 -951 3 -951 545 -319 c300 -175 573 -334 607 -353 l62 -35 201 116 c110 64 200 120 200 124 0 5 -270 165 -600 357 l-600 349 -2 953 -3 952 -208 -121z"
       fill="#FFFFFF" />
    <path
       style="fill:#c72323;fill-opacity:0.88535035"
       id="path10"
       d="M2160 3268 l0 -705 -807 -470 c-444 -259 -809 -475 -810 -480 -2 -6 86 -63 196 -127 l201 -116 820 477 820 478 0 701 c0 549 -3 704 -12 712 -16 13 -376 222 -394 229 -12 4 -14 -107 -14 -699z"
       fill="#FFFFFF" />
    <path
       style="fill:#2c769d;fill-opacity:1"
       id="path12"
       d="M1970 1940 l-595 -349 -3 -241 -2 -241 22 12 c13 7 282 163 598 347 316 184 580 335 585 335 10 0 523 -296 1288 -745 186 -109 341 -198 343 -198 2 0 3 108 2 241 l-3 241 -805 470 c-443 259 -812 472 -820 474 -8 1 -283 -154 -610 -346z"
       fill="#FFFFFF" />
  </g>
</svg>
